<?xml version="1.0" standalone="no"?>
<!DOCTYPE svg PUBLIC "-//W3C//DTD SVG 20010904//EN"
 "http://www.w3.org/TR/2001/REC-SVG-20010904/DTD/svg10.dtd">
<svg version="1.0" xmlns="http://www.w3.org/2000/svg"
 width="1200.000000pt" height="1200.000000pt" viewBox="0 0 1200.000000 1200.000000"
 preserveAspectRatio="xMidYMid meet">

<g transform="translate(0.000000,1200.000000) scale(0.100000,-0.100000)"
fill="#000000" stroke="none">
<path d="M5815 11094 c-453 -18 -975 -110 -1385 -244 -328 -108 -734 -289
-980 -436 -137 -81 -451 -291 -545 -364 -816 -630 -1430 -1492 -1744 -2450
-178 -542 -254 -1022 -254 -1600 0 -574 76 -1058 254 -1600 421 -1283 1366
-2370 2584 -2970 569 -280 1162 -447 1800 -506 240 -22 669 -22 910 0 1453
133 2763 868 3637 2039 477 640 800 1395 932 2182 142 841 75 1684 -199 2500
-342 1018 -1053 1953 -1945 2557 -641 435 -1303 702 -2035 823 -321 53 -730
80 -1030 69z m2905 -2430 c0 -126 -49 -293 -141 -479 -108 -219 -133 -248
-859 -983 -474 -479 -672 -686 -689 -720 -16 -32 -26 -70 -29 -117 -4 -64 23
-193 297 -1441 165 -754 301 -1380 301 -1391 0 -11 -8 -27 -17 -35 -23 -20
-133 -60 -148 -54 -7 2 -270 395 -585 873 -315 477 -584 882 -598 898 -45 55
-125 102 -199 115 -132 24 -127 26 -741 -382 -356 -237 -554 -375 -573 -399
-16 -21 -39 -59 -52 -86 -21 -46 -22 -61 -27 -447 l-5 -399 -195 293 c-107
161 -211 309 -231 329 -20 20 -168 124 -329 231 l-293 195 399 5 399 5 55 26
c30 14 70 38 88 54 30 25 705 1023 744 1100 30 58 41 142 28 209 -16 79 -39
124 -92 175 -24 22 -432 298 -908 612 -476 314 -871 577 -879 584 -12 12 -8
25 30 91 24 42 49 78 54 80 6 3 627 -131 1380 -297 1242 -272 1377 -300 1445
-297 53 2 90 10 125 27 40 19 188 162 710 681 363 361 688 678 722 703 238
181 539 304 746 306 l67 1 0 -66z"/>
</g>
</svg>
